<svg xmlns="http://www.w3.org/2000/svg" width="27.876" height="27.876" viewBox="0 0 27.876 27.876"><rect width="27.876" height="27.876" fill="rgba(0,0,0,0)"/><path d="M17.345,22.3H2.169A2.2,2.2,0,0,1,0,20.071V4.461A2.2,2.2,0,0,1,2.169,2.23H6.7A3.28,3.28,0,0,1,9.757,0a3.281,3.281,0,0,1,3.058,2.23h4.531a2.2,2.2,0,0,1,2.168,2.231v15.61A2.2,2.2,0,0,1,17.345,22.3ZM5.421,15.611a1.115,1.115,0,0,0,0,2.23h5.421a1.115,1.115,0,0,0,0-2.23Zm0-4.461a1.115,1.115,0,0,0,0,2.23h8.673a1.115,1.115,0,0,0,0-2.23Zm0-4.46a1.115,1.115,0,0,0,0,2.23h8.673a1.115,1.115,0,0,0,0-2.23ZM9.758,2.23a1.116,1.116,0,1,0,1.084,1.116A1.1,1.1,0,0,0,9.758,2.23Z" transform="translate(4.181 1.394)" fill="#fff"/></svg>