<svg xmlns="http://www.w3.org/2000/svg" width="22.741" height="23.179" viewBox="0 0 22.741 23.179"><g transform="translate(-883.684 -3440.414)"><path d="M27.644,23.594a.994.994,0,0,1-.707-.292L18,14.36l-8.5,8.5a1,1,0,0,1-1.414,0l-.943-.942a1,1,0,0,1,0-1.415l8.5-8.5-8.5-8.5a1,1,0,0,1,0-1.414l.942-.943a1,1,0,0,1,1.415,0l8.5,8.5L26.936.707a1,1,0,0,1,1.414,0l.943.942a1,1,0,0,1,0,1.415L20.354,12l8.94,8.941a1,1,0,0,1,0,1.414l-.943.943A.993.993,0,0,1,27.644,23.594Z" transform="translate(876.84 3440)" fill="#0080cc"/></g></svg>